# xmcd
#
# Track frame offsets:
# 150
# 12477
# 24717
# 37670
# 49212
# 61017
# 71240
# 83720
# 92454
# 104727
# 121892
# 131732
# 141522
# 152547
# 164382
# 175445
# 185915
# 194107
# 205305
# 217630
#
# Disc length: 3033 seconds
#
#
# Revision: 0
# Processed by: cddbd v1.5.1PL0 Copyright (c) Steve Scherf et al.
# Submitted via: FreeRIP 2.90 
#
DISCID=250bd714
DTITLE=Country Various - Super Hits
DYEAR=1900
DGENRE=Country
TTITLE0=Freddy Fender - Wasted Days and Wasted Nights
TTITLE1=Susan Raye - L. A. International Airport
TTITLE2=Faron Young - It's Four in the Morning
TTITLE3=Sammi Smith - Help Me Make it Through the Night
TTITLE4=Charley Pride - There Goes My Everything
TTITLE5=Patsy Cline - Three Cigarettes in the Ashtray
TTITLE6=Merle Haggard - If We Make it Through December
TTITLE7=Ferlin Husky - Wings of a Dove
TTITLE8=Glen Campbell - Rhinestone Cowboy
TTITLE9=Ray Price - For the Good Times
TTITLE10=Waylon Jennings - White Lightning
TTITLE11=Ned Miller - From a Jack to a King
TTITLE12=Wanda Jackson - Sweet Nothin's
TTITLE13=Kenny Rogers - Elvira
TTITLE14=Roger Miller - King of the Road
TTITLE15=Jimmy Dickens - May the Bird of Paradise Get Up Your Nose
TTITLE16=Don Gibson - Blue Blue Day
TTITLE17=Conway Twitty - It's Only Make Believe
TTITLE18=Jeanne Pruett - Satin Sheets
TTITLE19=Brenda Lee - I'm Sorry
EXTD=
EXTT0=
EXTT1=
EXTT2=
EXTT3=
EXTT4=
EXTT5=
EXTT6=
EXTT7=
EXTT8=
EXTT9=
EXTT10=
EXTT11=
EXTT12=
EXTT13=
EXTT14=
EXTT15=
EXTT16=
EXTT17=
EXTT18=
EXTT19=
PLAYORDER=
